<svg width="150" height="35" viewBox="0 0 150 35" fill="none" xmlns="http://www.w3.org/2000/svg">
<path fill-rule="evenodd" clip-rule="evenodd" d="M89.187 9.22688C88.4788 9.5407 88.0299 10.2507 88.05 11.025V11.05C88.0453 11.5586 88.2531 12.0462 88.6233 12.395C88.9935 12.7439 89.4925 12.9224 90 12.8875C90.7744 12.8721 91.4631 12.391 91.7441 11.6692C92.0251 10.9474 91.8429 10.1274 91.2828 9.59237C90.7227 9.05737 89.8952 8.91306 89.187 9.22688ZM47.3375 10.0875H43.5875V25.25H47.3375V10.0875ZM54.675 13.5375C51.125 13.5375 48.825 15.775 48.825 19.525C48.825 23.3375 51.075 25.525 54.675 25.525C58.275 25.525 60.525 23.275 60.525 19.525C60.525 15.775 58.225 13.5375 54.675 13.5375ZM56.7625 19.525C56.7625 17.4625 55.95 16.25 54.675 16.25C53.4 16.25 52.6 17.5 52.6 19.525C52.6 21.55 53.3875 22.775 54.675 22.775C55.9625 22.775 56.7625 21.625 56.7625 19.5375V19.525ZM65.5375 25.9875H61.9375V26C62.15 28.075 64.2125 29.5625 67.525 29.5625C71.0875 29.5625 73.5 27.8625 73.5 25.125V13.75H69.75V15.8375C69.1719 14.4559 67.7965 13.5788 66.3 13.6375C63.425 13.6375 61.7 15.9 61.7 19.4875C61.7 23.075 63.5125 25.1625 66.25 25.1625C67.6997 25.2412 69.0512 24.4293 69.6625 23.1125H69.7375V25.2125C69.7375 26.3375 68.9875 27.1125 67.5625 27.1125C66.7129 27.2267 65.8893 26.7692 65.5375 25.9875ZM69.75 19.5125C69.75 17.6875 68.9125 16.5375 67.5875 16.5375C66.2625 16.5375 65.45 17.675 65.45 19.5125C65.45 21.35 66.25 22.3875 67.5875 22.3875C68.925 22.3875 69.75 21.375 69.75 19.525V19.5125ZM80.7625 13.525C77.2125 13.525 74.9125 15.7625 74.9125 19.5125V19.525C74.9125 23.3375 77.15 25.5125 80.7625 25.5125C84.375 25.5125 86.625 23.2625 86.625 19.5125C86.625 15.7625 84.3125 13.525 80.7625 13.525ZM82.85 19.5125C82.85 17.45 82.0375 16.2375 80.7625 16.2375C79.4875 16.2375 78.75 17.5 78.75 19.5375C78.75 21.575 79.5375 22.7875 80.8125 22.7875C82.0875 22.7875 82.85 21.625 82.85 19.5375V19.5125ZM88.05 13.775H91.8V25.25H88.05V13.775ZM100.9 25.4C103.75 25.4 105.412 23.2625 105.412 19.5125L105.462 19.5375C105.462 15.7875 103.75 13.6375 100.875 13.5875C99.3665 13.5202 97.9772 14.4047 97.4 15.8H97.325V13.75H93.575V28.925H97.325V23.275H97.4C98.0053 24.6475 99.403 25.4961 100.9 25.4ZM101.662 19.5125C101.662 17.6875 100.825 16.525 99.5125 16.525C98.2 16.525 97.3625 17.7 97.35 19.5125C97.3375 21.325 98.2 22.4875 99.5125 22.4875C100.825 22.4875 101.662 21.35 101.662 19.5375V19.5125ZM116.937 17.35C116.85 14.9875 114.962 13.5125 111.85 13.5125V13.5375C108.75 13.5375 106.737 15 106.712 17.25C106.712 19 107.887 20.1875 110.125 20.65L112.287 21.1125C113.187 21.3 113.537 21.425 113.537 22.025C113.537 22.625 113.037 22.9875 111.937 22.9875C110.837 22.9875 110.162 22.4875 110.05 21.6375H106.437C106.6 23.975 108.687 25.5 111.875 25.5C115.062 25.5 117.225 23.975 117.225 21.6C117.225 19.8625 116.25 18.9375 113.962 18.45L111.562 17.9625C110.725 17.7875 110.312 17.6 110.312 17.0125C110.312 16.425 110.775 16.025 111.812 16.025C112.85 16.025 113.525 16.5375 113.525 17.35H116.937ZM129.737 25.225H126.125V23.0875H126.05C125.641 24.5661 124.257 25.5599 122.725 25.475C121.572 25.5405 120.448 25.1032 119.642 24.276C118.837 23.4489 118.429 22.3131 118.525 21.1625V13.75H122.275V20.3C122.275 21.6625 122.975 22.3875 124.137 22.3875C124.689 22.3886 125.214 22.1516 125.578 21.7373C125.942 21.323 126.11 20.7718 126.037 20.225V13.75H129.787L129.737 25.225ZM135.175 13.75H131.55L131.487 25.25H135.237V18.4875C135.18 18.0119 135.329 17.5346 135.647 17.1762C135.965 16.8179 136.421 16.6126 136.9 16.6125C137.925 16.6125 138.487 17.2375 138.487 18.3875V25.25H142.05V18.4625C141.988 17.9927 142.133 17.5194 142.447 17.1646C142.761 16.8099 143.214 16.6085 143.687 16.6125C144.737 16.6125 145.3 17.1875 145.3 18.4375V25.25H149.05V17.4375C149.125 16.4083 148.759 15.3956 148.044 14.6518C147.329 13.9079 146.331 13.5029 145.3 13.5375C143.692 13.4684 142.242 14.4972 141.775 16.0375H141.7C141.451 14.5011 140.064 13.4133 138.512 13.5375C137 13.5095 135.659 14.5061 135.25 15.9625H135.175V13.75Z" fill="white"/>
<path fill-rule="evenodd" clip-rule="evenodd" d="M30.6 6.75C31.6219 7.96492 32.4639 9.32045 33.1 10.775C34.0266 12.8958 34.5033 15.1857 34.5 17.5C34.4931 26.8417 26.9292 34.4168 17.5875 34.4375C15.4139 34.4363 13.2613 34.0117 11.25 33.1875C9.81543 32.6175 8.46875 31.8474 7.24999 30.9C2.06622 26.9495 -0.38623 20.3717 0.945885 13.9918C2.278 7.61184 7.15761 2.56505 13.4891 1.01885C19.8206 -0.527351 26.4771 1.70221 30.6 6.75ZM23.225 5.2375C21.4553 4.41392 19.5269 3.98729 17.575 3.9875L17.5875 3.9625C12.9588 3.95905 8.65102 6.32723 6.1737 10.2372C3.69638 14.1471 3.39493 19.0537 5.37499 23.2375C5.9396 22.6443 6.28754 21.878 6.36249 21.0625C6.81713 17.9218 9.28426 15.4546 12.425 15C14.197 14.8393 15.6122 13.4555 15.8125 11.6875C16.2671 8.54677 18.7343 6.07964 21.875 5.625C22.3397 5.55419 22.7934 5.42396 23.225 5.2375ZM7.38745 26.1153L7.3875 26.1153C7.48749 26.0264 7.58749 25.9375 7.68749 25.8375C8.79956 24.7593 9.51338 23.3361 9.71249 21.8C9.79322 20.9366 10.1787 20.1301 10.8 19.525C11.3978 18.9027 12.2025 18.5204 13.0625 18.45C16.2032 17.9954 18.6704 15.5282 19.125 12.3875C19.1791 11.4844 19.5666 10.6336 20.2125 10C20.8251 9.38982 21.6374 9.02138 22.5 8.9625C23.9049 8.76921 25.2152 8.14465 26.25 7.175C27.4283 8.15259 28.4267 9.32862 29.2 10.65C29.1525 10.7142 29.098 10.7729 29.0375 10.825C28.4408 11.4527 27.6372 11.8435 26.775 11.925C23.6303 12.3718 21.1593 14.8428 20.7125 17.9875C20.5309 19.7617 19.1248 21.1625 17.35 21.3375C14.2005 21.7886 11.7205 24.2534 11.25 27.4C11.1827 28.0109 10.9729 28.5975 10.6375 29.1125C9.35499 28.351 8.20635 27.384 7.23749 26.25C7.28748 26.2042 7.33746 26.1597 7.38745 26.1153ZM13.825 30.55C15.0443 30.8997 16.3066 31.0764 17.575 31.075V31.0125C21.7613 30.9962 25.7042 29.0423 28.2527 25.721C30.8011 22.3996 31.6679 18.0854 30.6 14.0375C29.651 14.7085 28.5525 15.1376 27.4 15.2875C25.63 15.4681 24.2306 16.8675 24.05 18.6375C23.594 21.7822 21.1206 24.2504 17.975 24.7C16.205 24.8806 14.8056 26.28 14.625 28.05C14.5132 28.9252 14.2421 29.7725 13.825 30.55Z" fill="#FB9ACF"/>
</svg>
